<svg xmlns="http://www.w3.org/2000/svg" xmlns:xlink="http://www.w3.org/1999/xlink" version="1.1" width="256" height="256" viewBox="0 0 256 256" xml:space="preserve">

<defs>
</defs>
<g style="stroke: none; stroke-width: 0; stroke-dasharray: none; stroke-linecap: butt; stroke-linejoin: miter; stroke-miterlimit: 10; fill: none; fill-rule: nonzero; opacity: 1;" transform="translate(1.4065934065934016 1.4065934065934016) scale(2.81 2.81)" >
	<path d="M 29.605 84.849 h 2.571 c 1.384 0 2.705 0.472 3.859 1.236 c 2.88 1.907 7.73 3.023 12.379 2.907 l 17.844 0 c 2.409 0 4.379 -1.971 4.379 -4.379 v -0.873 c 0 -2.409 -1.971 -4.379 -4.379 -4.379 h 5.763 c 2.409 0 4.379 -1.971 4.379 -4.379 v -0.873 c 0 -2.409 -1.971 -4.379 -4.379 -4.379 h -0.19 c 2.409 0 4.379 -1.971 4.379 -4.379 v -0.873 c 0 -2.409 -1.971 -4.379 -4.379 -4.379 H 71.31 c 2.409 0 4.379 -1.971 4.379 -4.379 v -0.873 c 0 -2.409 -1.971 -4.379 -4.379 -4.379 l -16.993 0.03 c 2.732 -4.665 2.868 -19.484 -3.508 -21.249 c -1.197 -0.331 -2.385 0.583 -2.519 1.818 C 47.179 41.288 40.922 54 34.56 54.368 h -4.955 V 84.849 z" style="stroke: none; stroke-width: 1; stroke-dasharray: none; stroke-linecap: butt; stroke-linejoin: miter; stroke-miterlimit: 10; fill: rgb(253,221,192); fill-rule: nonzero; opacity: 1;" transform=" matrix(1 0 0 1 0 0) " stroke-linecap="round" />
	<path d="M 27.757 89 h -12.31 c -1.02 0 -1.848 -0.827 -1.848 -1.848 v -34.91 c 0 -1.02 0.827 -1.848 1.848 -1.848 h 12.31 c 1.02 0 1.848 0.827 1.848 1.848 v 34.91 C 29.605 88.173 28.777 89 27.757 89 z" style="stroke: none; stroke-width: 1; stroke-dasharray: none; stroke-linecap: butt; stroke-linejoin: miter; stroke-miterlimit: 10; fill: rgb(12,103,180); fill-rule: nonzero; opacity: 1;" transform=" matrix(1 0 0 1 0 0) " stroke-linecap="round" />
	<path d="M 71.311 61.095 h -8.042 c -0.553 0 -1 -0.447 -1 -1 s 0.447 -1 1 -1 h 8.042 c 0.553 0 1 0.447 1 1 S 71.863 61.095 71.311 61.095 z" style="stroke: none; stroke-width: 1; stroke-dasharray: none; stroke-linecap: butt; stroke-linejoin: miter; stroke-miterlimit: 10; fill: rgb(0,0,0); fill-rule: nonzero; opacity: 1;" transform=" matrix(1 0 0 1 0 0) " stroke-linecap="round" />
	<path d="M 71.831 70.728 h -8.563 c -0.553 0 -1 -0.447 -1 -1 s 0.447 -1 1 -1 h 8.563 c 0.553 0 1 0.447 1 1 S 72.384 70.728 71.831 70.728 z" style="stroke: none; stroke-width: 1; stroke-dasharray: none; stroke-linecap: butt; stroke-linejoin: miter; stroke-miterlimit: 10; fill: rgb(0,0,0); fill-rule: nonzero; opacity: 1;" transform=" matrix(1 0 0 1 0 0) " stroke-linecap="round" />
	<path d="M 66.258 80.359 h -5.136 c -0.553 0 -1 -0.447 -1 -1 s 0.447 -1 1 -1 h 5.136 c 0.553 0 1 0.447 1 1 S 66.811 80.359 66.258 80.359 z" style="stroke: none; stroke-width: 1; stroke-dasharray: none; stroke-linecap: butt; stroke-linejoin: miter; stroke-miterlimit: 10; fill: rgb(0,0,0); fill-rule: nonzero; opacity: 1;" transform=" matrix(1 0 0 1 0 0) " stroke-linecap="round" />
	<path d="M 47.704 90 c -4.681 0 -9.319 -1.159 -12.222 -3.081 c -1.056 -0.699 -2.2 -1.069 -3.307 -1.069 h -2.571 c -0.552 0 -1 -0.447 -1 -1 s 0.448 -1 1 -1 h 2.571 c 1.501 0 3.026 0.484 4.411 1.401 c 2.685 1.777 7.33 2.859 11.802 2.74 l 17.869 0.001 c 1.863 0 3.38 -1.517 3.38 -3.38 v -0.873 c 0 -1.863 -1.517 -3.38 -3.38 -3.38 c -0.553 0 -1 -0.447 -1 -1 s 0.447 -1 1 -1 h 5.764 c 1.863 0 3.379 -1.516 3.379 -3.379 v -0.874 c 0 -1.863 -1.516 -3.379 -3.379 -3.379 h -0.19 c -0.553 0 -1 -0.447 -1 -1 s 0.447 -1 1 -1 c 1.863 0 3.38 -1.517 3.38 -3.38 v -0.873 c 0 -1.863 -1.517 -3.38 -3.38 -3.38 h -0.521 c -0.553 0 -1 -0.447 -1 -1 s 0.447 -1 1 -1 c 1.863 0 3.379 -1.516 3.379 -3.379 v -0.873 c 0 -1.863 -1.516 -3.38 -3.379 -3.38 l -16.991 0.029 c -0.001 0 -0.001 0 -0.002 0 c -0.358 0 -0.688 -0.191 -0.867 -0.502 s -0.177 -0.693 0.004 -1.003 c 1.813 -3.097 2.36 -11.345 0.39 -16.2 c -0.809 -1.993 -1.92 -3.198 -3.302 -3.581 c -0.343 -0.094 -0.626 0.046 -0.763 0.138 c -0.274 0.186 -0.459 0.494 -0.495 0.824 c -1.181 10.866 -7.845 23.803 -14.667 24.197 l -5.013 0.002 c -0.552 0 -1 -0.447 -1 -1 s 0.448 -1 1 -1 h 4.956 c 5.556 -0.323 11.668 -12.596 12.736 -22.415 c 0.1 -0.919 0.596 -1.744 1.36 -2.263 c 0.718 -0.487 1.603 -0.636 2.419 -0.411 c 1.984 0.549 3.582 2.194 4.622 4.756 c 1.994 4.912 1.696 12.313 0.177 16.454 l 15.435 -0.026 c 2.968 0 5.381 2.413 5.381 5.38 v 0.873 c 0 1.693 -0.787 3.207 -2.015 4.193 c 1.522 0.952 2.536 2.643 2.536 4.565 v 0.873 c 0 1.763 -0.853 3.33 -2.166 4.312 c 1.421 0.97 2.355 2.602 2.355 4.447 v 0.874 c 0 2.966 -2.413 5.379 -5.379 5.379 H 70.44 c 0.748 0.925 1.197 2.101 1.197 3.38 v 0.873 c 0 2.967 -2.413 5.38 -5.38 5.38 l -17.844 -0.001 C 48.178 89.997 47.94 90 47.704 90 z" style="stroke: none; stroke-width: 1; stroke-dasharray: none; stroke-linecap: butt; stroke-linejoin: miter; stroke-miterlimit: 10; fill: rgb(0,0,0); fill-rule: nonzero; opacity: 1;" transform=" matrix(1 0 0 1 0 0) " stroke-linecap="round" />
	<path d="M 27.757 90 h -12.31 c -1.57 0 -2.848 -1.277 -2.848 -2.848 v -34.91 c 0 -1.57 1.277 -2.848 2.848 -2.848 h 12.31 c 1.57 0 2.848 1.277 2.848 2.848 v 34.91 C 30.604 88.723 29.327 90 27.757 90 z M 15.447 51.395 c -0.467 0 -0.848 0.38 -0.848 0.848 v 34.91 c 0 0.468 0.38 0.848 0.848 0.848 h 12.31 c 0.467 0 0.848 -0.38 0.848 -0.848 v -34.91 c 0 -0.468 -0.38 -0.848 -0.848 -0.848 H 15.447 z" style="stroke: none; stroke-width: 1; stroke-dasharray: none; stroke-linecap: butt; stroke-linejoin: miter; stroke-miterlimit: 10; fill: rgb(0,0,0); fill-rule: nonzero; opacity: 1;" transform=" matrix(1 0 0 1 0 0) " stroke-linecap="round" />
	<path d="M 21.602 85.749 c -0.552 0 -1 -0.447 -1 -1 v -4.766 c 0 -0.553 0.448 -1 1 -1 s 1 0.447 1 1 v 4.766 C 22.602 85.302 22.154 85.749 21.602 85.749 z" style="stroke: none; stroke-width: 1; stroke-dasharray: none; stroke-linecap: butt; stroke-linejoin: miter; stroke-miterlimit: 10; fill: rgb(0,0,0); fill-rule: nonzero; opacity: 1;" transform=" matrix(1 0 0 1 0 0) " stroke-linecap="round" />
	<path d="M 17.391 6.71 c -0.051 0 -0.1 -0.02 -0.136 -0.056 L 14.172 3.57 C 13.739 3.137 13.5 2.561 13.5 1.949 c 0 -0.612 0.239 -1.188 0.672 -1.621 c 0.433 -0.433 1.009 -0.672 1.621 -0.672 c 0.602 0 1.168 0.23 1.598 0.649 c 0.43 -0.419 0.996 -0.649 1.598 -0.649 c 0.613 0 1.188 0.239 1.621 0.672 c 0.433 0.433 0.671 1.009 0.671 1.621 c 0 0.612 -0.239 1.188 -0.672 1.621 l -3.084 3.083 C 17.49 6.689 17.442 6.71 17.391 6.71 z" style="stroke: none; stroke-width: 1; stroke-dasharray: none; stroke-linecap: butt; stroke-linejoin: miter; stroke-miterlimit: 10; fill: rgb(196,16,16); fill-rule: nonzero; opacity: 1;" transform=" matrix(2.8008 0 0 2.8008 1.9639999999999986 1.9639999999999702) " stroke-linecap="round" />
	<path d="M 17.391 7.067 c -0.145 0 -0.287 -0.059 -0.389 -0.161 l -3.083 -3.083 c -0.501 -0.501 -0.776 -1.166 -0.776 -1.874 s 0.276 -1.373 0.776 -1.874 s 1.166 -0.776 1.874 -0.776 c 0.584 0 1.14 0.188 1.598 0.536 c 0.458 -0.347 1.014 -0.536 1.598 -0.536 c 0.709 0 1.374 0.276 1.874 0.776 c 0.5 0.5 0.776 1.165 0.776 1.873 c 0 0.708 -0.276 1.373 -0.776 1.874 l -3.084 3.083 C 17.677 7.008 17.536 7.067 17.391 7.067 z M 17.274 6.401 C 17.274 6.401 17.274 6.401 17.274 6.401 L 17.274 6.401 z M 17.507 6.4 L 17.507 6.4 C 17.508 6.401 17.507 6.401 17.507 6.4 z M 15.793 0.013 c -0.517 0 -1.003 0.201 -1.369 0.567 s -0.567 0.852 -0.567 1.369 s 0.201 1.003 0.567 1.369 l 2.967 2.967 l 2.967 -2.967 c 0.366 -0.366 0.567 -0.852 0.567 -1.369 s -0.201 -1.003 -0.567 -1.369 c -0.365 -0.366 -0.851 -0.567 -1.369 -0.567 c -0.507 0 -0.986 0.194 -1.349 0.548 c -0.139 0.135 -0.359 0.135 -0.498 0 C 16.779 0.207 16.3 0.013 15.793 0.013 z" style="stroke: none; stroke-width: 1; stroke-dasharray: none; stroke-linecap: butt; stroke-linejoin: miter; stroke-miterlimit: 10; fill: rgb(0,0,0); fill-rule: nonzero; opacity: 1;" transform=" matrix(2.8008 0 0 2.8008 1.9639999999999986 1.9639999999999702) " stroke-linecap="round" />
	<path d="M 9.414 14.652 c -0.062 0 -0.121 -0.025 -0.165 -0.068 l -3.746 -3.746 c -0.526 -0.526 -0.816 -1.226 -0.816 -1.97 c 0 -0.744 0.29 -1.443 0.816 -1.969 c 0.526 -0.526 1.225 -0.816 1.97 -0.816 c 0.731 0 1.419 0.279 1.941 0.788 c 0.522 -0.508 1.21 -0.788 1.941 -0.788 c 0.744 0 1.444 0.29 1.97 0.816 c 0.526 0.526 0.816 1.226 0.816 1.969 c 0 0.744 -0.29 1.443 -0.816 1.97 l -3.746 3.746 C 9.535 14.627 9.476 14.652 9.414 14.652 z" style="stroke: none; stroke-width: 1; stroke-dasharray: none; stroke-linecap: butt; stroke-linejoin: miter; stroke-miterlimit: 10; fill: rgb(196,16,16); fill-rule: nonzero; opacity: 1;" transform=" matrix(2.8008 0 0 2.8008 1.9639999999999986 1.9639999999999702) " stroke-linecap="round" />
	<path d="M 9.414 15.009 c -0.158 0 -0.306 -0.061 -0.417 -0.173 L 5.251 11.09 c -0.594 -0.594 -0.92 -1.383 -0.92 -2.222 c 0 -0.839 0.327 -1.628 0.92 -2.222 c 0.593 -0.594 1.382 -0.92 2.222 -0.92 c 0.712 0 1.39 0.236 1.941 0.671 c 0.551 -0.435 1.229 -0.671 1.941 -0.671 c 0.84 0 1.629 0.327 2.222 0.92 c 0.593 0.593 0.92 1.382 0.92 2.222 c 0 0.839 -0.327 1.628 -0.92 2.222 l -3.746 3.746 C 9.72 14.947 9.572 15.009 9.414 15.009 z M 9.502 14.331 h 0.004 H 9.502 z M 7.473 6.44 c -0.649 0 -1.258 0.253 -1.717 0.711 C 5.297 7.609 5.045 8.219 5.045 8.868 c 0 0.649 0.253 1.259 0.711 1.717 l 3.658 3.658 l 3.658 -3.658 c 0.459 -0.459 0.711 -1.069 0.711 -1.717 s -0.253 -1.258 -0.711 -1.717 c -0.459 -0.459 -1.068 -0.711 -1.717 -0.711 c -0.636 0 -1.237 0.244 -1.692 0.687 c -0.138 0.135 -0.359 0.135 -0.498 0 C 8.71 6.683 8.109 6.44 7.473 6.44 z" style="stroke: none; stroke-width: 1; stroke-dasharray: none; stroke-linecap: butt; stroke-linejoin: miter; stroke-miterlimit: 10; fill: rgb(0,0,0); fill-rule: nonzero; opacity: 1;" transform=" matrix(2.8008 0 0 2.8008 1.9639999999999986 1.9639999999999702) " stroke-linecap="round" />
	<path d="M 23.602 13.85 c -0.039 0 -0.076 -0.015 -0.103 -0.043 l -2.347 -2.347 c -0.33 -0.33 -0.511 -0.768 -0.511 -1.234 c 0 -0.466 0.182 -0.904 0.511 -1.234 c 0.33 -0.33 0.768 -0.511 1.234 -0.511 c 0.458 0 0.889 0.175 1.216 0.494 c 0.327 -0.319 0.758 -0.494 1.216 -0.494 c 0.466 0 0.904 0.182 1.234 0.511 c 0.33 0.33 0.511 0.768 0.511 1.234 c 0 0.466 -0.182 0.904 -0.511 1.234 l -2.347 2.347 C 23.678 13.835 23.641 13.85 23.602 13.85 z" style="stroke: none; stroke-width: 1; stroke-dasharray: none; stroke-linecap: butt; stroke-linejoin: miter; stroke-miterlimit: 10; fill: rgb(196,16,16); fill-rule: nonzero; opacity: 1;" transform=" matrix(2.8008 0 0 2.8008 1.9639999999999986 1.9639999999999702) " stroke-linecap="round" />
	<path d="M 23.602 14.207 c -0.133 0 -0.263 -0.054 -0.356 -0.148 l -2.346 -2.346 c -0.397 -0.397 -0.615 -0.925 -0.615 -1.486 c 0 -0.562 0.219 -1.089 0.615 -1.486 s 0.925 -0.616 1.486 -0.616 c 0.441 0 0.863 0.136 1.216 0.387 c 0.353 -0.251 0.775 -0.387 1.216 -0.387 c 0.562 0 1.09 0.219 1.486 0.616 c 0.397 0.397 0.615 0.925 0.615 1.486 c 0 0.562 -0.219 1.09 -0.616 1.487 l -2.347 2.346 C 23.865 14.153 23.735 14.207 23.602 14.207 z M 23.453 13.555 C 23.452 13.555 23.452 13.556 23.453 13.555 L 23.453 13.555 z M 23.75 13.554 l 0.001 0.001 C 23.751 13.555 23.75 13.554 23.75 13.554 z M 22.386 8.839 c -0.371 0 -0.719 0.144 -0.982 0.406 c -0.262 0.262 -0.406 0.611 -0.406 0.982 s 0.144 0.719 0.406 0.981 l 2.198 2.198 l 2.197 -2.197 c 0.262 -0.262 0.407 -0.611 0.407 -0.982 S 26.061 9.508 25.8 9.246 c -0.519 -0.519 -1.423 -0.525 -1.949 -0.014 c -0.139 0.135 -0.359 0.135 -0.498 0 C 23.093 8.978 22.749 8.839 22.386 8.839 z" style="stroke: none; stroke-width: 1; stroke-dasharray: none; stroke-linecap: butt; stroke-linejoin: miter; stroke-miterlimit: 10; fill: rgb(0,0,0); fill-rule: nonzero; opacity: 1;" transform=" matrix(2.8008 0 0 2.8008 1.9639999999999986 1.9639999999999702) " stroke-linecap="round" />
</g>
</svg>