<svg xmlns="http://www.w3.org/2000/svg" xmlns:xlink="http://www.w3.org/1999/xlink" version="1.1" width="256" height="256" viewBox="0 0 256 256" xml:space="preserve">

<defs>
</defs>
<g style="stroke: none; stroke-width: 0; stroke-dasharray: none; stroke-linecap: butt; stroke-linejoin: miter; stroke-miterlimit: 10; fill: none; fill-rule: nonzero; opacity: 1;" transform="translate(1.4065934065934016 1.4065934065934016) scale(2.81 2.81)" >
	<path d="M 89.459 23.768 c -0.466 -2.999 -1.143 -6.009 -2.341 -8.885 c -1.17 -2.872 -2.806 -5.661 -5.127 -7.93 c -0.271 -0.297 -0.576 -0.564 -0.901 -0.815 l -0.948 -0.766 c -0.661 -0.438 -1.362 -0.876 -2.014 -1.249 c -1.266 -0.754 -2.721 -1.431 -4.192 -1.942 c -1.479 -0.521 -3.072 -0.831 -4.685 -0.847 c -1.615 -0.022 -3.242 0.322 -4.717 0.957 c -1.478 0.64 -2.775 1.599 -3.857 2.707 c -1.079 1.115 -1.981 2.355 -2.75 3.651 c -0.743 1.31 -1.383 2.662 -1.927 4.045 c -0.513 1.392 -0.997 2.792 -1.368 4.218 c -1.52 5.705 -1.87 7.906 -2.072 13.751 c -3.7 -5.536 -5.656 -8.016 -10.639 -12.751 c -2.503 -2.347 -5.291 -4.504 -8.523 -6.122 c -3.204 -1.628 -6.987 -2.579 -10.834 -2.324 c -3.848 0.297 -7.488 1.844 -10.48 3.946 c -1.493 1.061 -2.894 2.222 -4.157 3.481 c -1.269 1.277 -2.436 2.52 -3.562 4.045 c -1.115 1.517 -2.072 3.148 -2.81 4.926 c -0.727 1.777 -1.217 3.672 -1.433 5.592 c -0.416 3.857 0.27 7.692 1.556 11.109 c 1.289 3.43 3.116 6.519 5.17 9.344 c 2.056 2.831 4.37 5.4 6.79 7.812 c 4.896 4.774 10.223 8.955 15.834 12.647 c 2.796 1.86 5.655 3.612 8.582 5.236 c 2.922 1.631 5.885 3.18 8.922 4.576 c 3.023 1.42 6.109 2.707 9.252 3.837 c 1.569 0.572 3.164 1.075 4.769 1.538 c 0.801 0.235 1.612 0.441 2.428 0.625 c 0.406 0.098 0.817 0.178 1.226 0.263 c 0.392 0.089 0.962 0.174 1.392 0.219 l 1.552 -1.604 c 0.521 -0.549 1.11 -1.15 1.549 -1.694 c 0.933 -1.119 1.906 -2.216 2.783 -3.385 l 1.329 -1.748 l 1.264 -1.797 c 0.868 -1.185 1.634 -2.435 2.419 -3.677 c 3.12 -4.982 5.653 -10.332 7.761 -15.852 c 2.018 -5.55 3.615 -11.292 4.463 -17.19 C 90.037 35.836 90.368 29.79 89.459 23.768 z M 84.775 32.682 c -0.079 2.776 -0.217 5.568 -0.604 8.345 c -0.35 2.78 -0.859 5.544 -1.452 8.296 c -0.573 2.757 -1.325 5.48 -2.151 8.181 c -1.66 5.402 -3.727 10.704 -6.22 15.828 c -1.281 2.541 -2.547 5.112 -4.036 7.558 c -0.688 1.261 -1.472 2.461 -2.225 3.688 l -2.227 3.538 c -0.367 -0.167 -0.601 -0.27 -1.001 -0.414 c -0.384 -0.145 -0.768 -0.284 -1.147 -0.442 c -0.761 -0.305 -1.515 -0.625 -2.265 -0.955 c -1.501 -0.655 -2.971 -1.381 -4.437 -2.108 c -2.922 -1.479 -5.781 -3.077 -8.594 -4.743 c -5.616 -3.351 -11.038 -7.002 -16.21 -10.931 c -5.141 -3.961 -10.094 -8.155 -14.424 -12.836 c -4.333 -4.627 -8.183 -9.761 -10.284 -15.287 c -1.004 -2.759 -1.53 -5.588 -1.263 -8.316 c 0.211 -2.727 1.248 -5.366 2.892 -7.706 c 0.794 -1.162 1.864 -2.363 2.88 -3.463 c 1.036 -1.112 2.157 -2.098 3.32 -2.993 c 2.341 -1.764 4.96 -2.948 7.71 -3.271 c 2.752 -0.313 5.624 0.248 8.378 1.429 c 2.767 1.157 5.389 2.906 7.884 4.854 c 4.956 3.986 9.338 8.895 13.309 14.086 l 0.057 0.075 l 2.135 -0.779 c -0.115 -2.853 -0.065 -5.711 0.168 -8.551 c 0.205 -2.843 0.68 -5.659 1.375 -8.402 c 0.684 -2.744 1.701 -5.408 3.15 -7.769 c 1.446 -2.342 3.473 -4.328 5.886 -5.22 c 2.419 -0.899 5.099 -0.531 7.496 0.554 c 1.207 0.567 2.335 1.218 3.478 2.061 c 0.565 0.404 1.055 0.788 1.564 1.193 l 0.675 0.67 c 0.232 0.213 0.449 0.442 0.64 0.704 c 1.629 1.965 2.792 4.363 3.613 6.9 c 0.793 2.551 1.333 5.227 1.606 7.954 C 84.724 27.138 84.856 29.902 84.775 32.682 z" style="stroke: none; stroke-width: 1; stroke-dasharray: none; stroke-linecap: butt; stroke-linejoin: miter; stroke-miterlimit: 10; fill: rgb(216,0,0); fill-rule: nonzero; opacity: 1;" transform=" matrix(1 0 0 1 0 0) " stroke-linecap="round" />
	<path d="M 73.289 41.21 c -0.457 -1.413 -1.105 -2.748 -2.012 -3.842 c -0.106 -0.146 -0.227 -0.274 -0.356 -0.392 l -0.376 -0.373 c -0.284 -0.225 -0.556 -0.439 -0.871 -0.664 c -0.637 -0.469 -1.265 -0.832 -1.937 -1.148 c -1.335 -0.604 -2.827 -0.809 -4.174 -0.309 c -1.344 0.497 -2.472 1.603 -3.278 2.907 c -0.807 1.315 -1.373 2.798 -1.754 4.326 c -0.387 1.528 -0.652 3.096 -0.766 4.679 c -0.129 1.582 -0.157 3.173 -0.093 4.762 l -1.189 0.434 l -0.032 -0.042 c -2.212 -2.891 -4.652 -5.624 -7.412 -7.844 c -1.389 -1.085 -2.85 -2.059 -4.391 -2.703 c -1.534 -0.658 -3.133 -0.97 -4.666 -0.796 c -1.531 0.18 -2.99 0.839 -4.294 1.821 c -0.648 0.499 -1.272 1.047 -1.849 1.667 c -0.566 0.612 -1.162 1.281 -1.604 1.928 c -0.915 1.303 -1.493 2.773 -1.61 4.292 c -0.149 1.519 0.145 3.095 0.704 4.631 c 1.17 3.078 3.314 5.937 5.727 8.514 c 2.411 2.607 5.17 4.943 8.033 7.148 c 2.88 2.188 5.9 4.222 9.028 6.088 c 1.566 0.928 3.159 1.818 4.786 2.641 c 0.816 0.405 1.635 0.809 2.471 1.174 c 0.418 0.183 0.838 0.362 1.261 0.532 c 0.211 0.088 0.425 0.165 0.639 0.246 c 0.223 0.08 0.353 0.137 0.557 0.23 l 1.24 -1.97 c 0.419 -0.684 0.856 -1.352 1.239 -2.054 c 0.83 -1.362 1.535 -2.794 2.248 -4.209 c 1.388 -2.853 2.539 -5.806 3.464 -8.815 c 0.46 -1.505 0.879 -3.021 1.198 -4.556 c 0.33 -1.533 0.614 -3.072 0.809 -4.62 c 0.216 -1.547 0.292 -3.102 0.336 -4.648 c 0.045 -1.548 -0.029 -3.087 -0.181 -4.605 C 74.031 44.121 73.73 42.631 73.289 41.21 z" style="stroke: none; stroke-width: 1; stroke-dasharray: none; stroke-linecap: butt; stroke-linejoin: miter; stroke-miterlimit: 10; fill: rgb(216,0,0); fill-rule: nonzero; opacity: 1;" transform=" matrix(1 0 0 1 0 0) " stroke-linecap="round" />
</g>
</svg>